<svg xmlns="http://www.w3.org/2000/svg" width="32" height="32" viewBox="0 0 32 32"><polygon points="16.00,19.40 3.18,12.00 3.18,20.40 16.00,27.80" fill="#B6A6E0" stroke="#433A5E" stroke-width="1.3" stroke-linejoin="round"/><polygon points="28.82,12.00 16.00,19.40 16.00,27.80 28.82,20.40" fill="#9061F0" stroke="#433A5E" stroke-width="1.3" stroke-linejoin="round"/><polygon points="16.00,4.60 28.82,12.00 16.00,19.40 3.18,12.00" fill="#EDE6FC" stroke="#433A5E" stroke-width="1.3" stroke-linejoin="round"/><ellipse cx="16.00" cy="8.00" rx="1.15" ry="0.60" fill="#7C57E5"/><ellipse cx="12.80" cy="9.85" rx="1.15" ry="0.60" fill="#7C57E5"/><ellipse cx="9.59" cy="11.70" rx="1.15" ry="0.60" fill="#7C57E5"/><ellipse cx="19.20" cy="9.85" rx="1.15" ry="0.60" fill="#7C57E5"/><ellipse cx="16.00" cy="11.70" rx="1.15" ry="0.60" fill="#7C57E5"/><ellipse cx="12.80" cy="13.55" rx="1.15" ry="0.60" fill="#7C57E5"/><ellipse cx="22.41" cy="11.70" rx="1.15" ry="0.60" fill="#7C57E5"/><ellipse cx="19.20" cy="13.55" rx="1.15" ry="0.60" fill="#7C57E5"/><ellipse cx="16.00" cy="15.40" rx="1.15" ry="0.60" fill="#7C57E5"/></svg>