<svg xmlns="http://www.w3.org/2000/svg" width="32" height="32" viewBox="0 0 32 32"><polygon points="16.00,20.20 1.80,12.00 1.80,15.20 16.00,23.40" fill="#B6A6E0" stroke="#433A5E" stroke-width="1.3" stroke-linejoin="round"/><polygon points="30.20,12.00 16.00,20.20 16.00,23.40 30.20,15.20" fill="#9061F0" stroke="#433A5E" stroke-width="1.3" stroke-linejoin="round"/><polygon points="16.00,3.80 30.20,12.00 16.00,20.20 1.80,12.00" fill="#EDE6FC" stroke="#433A5E" stroke-width="1.3" stroke-linejoin="round"/><path d="M 13.02,12.00 L 13.02,7.80 A 2.98 1.49 0 0 0 18.98,7.80 L 18.98,12.00 A 2.98 1.49 0 0 1 13.02,12.00 Z" fill="#9061F0" stroke="#433A5E" stroke-width="1.20" stroke-linejoin="round"/><ellipse cx="16.00" cy="7.80" rx="2.98" ry="1.49" fill="#C9B6FA" stroke="#433A5E" stroke-width="1.3"/><ellipse cx="16.00" cy="12.00" rx="1.14" ry="0.57" fill="#EFEAFD" stroke="#433A5E" stroke-width="1.3"/><ellipse cx="16.00" cy="12.00" rx="0.62" ry="0.31" fill="#FFFFFF"/><g stroke="#6A44D6" stroke-width="1.5" stroke-linecap="round"><line x1="13.8" y1="3.400000000000001" x2="18.2" y2="3.400000000000001"/><line x1="16.0" y1="1.2000000000000006" x2="16.0" y2="5.600000000000001"/></g></svg>