<svg xmlns="http://www.w3.org/2000/svg" width="32" height="32" viewBox="0 0 32 32"><polygon points="15.00,17.20 0.80,9.00 0.80,12.40 15.00,20.60" fill="#B6A6E0" stroke="#433A5E" stroke-width="1.3" stroke-linejoin="round"/><polygon points="29.20,9.00 15.00,17.20 15.00,20.60 29.20,12.40" fill="#9061F0" stroke="#433A5E" stroke-width="1.3" stroke-linejoin="round"/><polygon points="15.00,0.80 29.20,9.00 15.00,17.20 0.80,9.00" fill="#EDE6FC" stroke="#433A5E" stroke-width="1.3" stroke-linejoin="round"/><line x1="15.00" y1="2.96" x2="22.10" y2="7.06" fill="none" stroke="#7C57E5" stroke-width="1.3" stroke-linecap="round"/><line x1="22.10" y1="7.06" x2="15.00" y2="11.16" fill="none" stroke="#7C57E5" stroke-width="1.3" stroke-linecap="round"/><line x1="15.00" y1="11.16" x2="7.90" y2="7.06" fill="none" stroke="#7C57E5" stroke-width="1.3" stroke-linecap="round"/><line x1="7.90" y1="7.06" x2="15.00" y2="2.96" fill="none" stroke="#7C57E5" stroke-width="1.3" stroke-linecap="round"/><line x1="21.00" y1="20.00" x2="27.00" y2="26.00" fill="none" stroke="#7C57E5" stroke-width="1.6" stroke-linecap="round"/><g transform="translate(28.2 27.2) rotate(45)"><polygon points="4.05,0.00 -1.10,-3.13 -1.10,-1.56 -4.23,-1.56 -4.23,1.56 -1.10,1.56 -1.10,3.13" fill="#7C57E5"/></g></svg>